<?xml version="1.0" encoding="UTF-8" standalone="no"?>
<!-- Created with Inkscape (http://www.inkscape.org/) -->

<svg
   width="259.75696"
   height="100.18909"
   viewBox="0 0 259.75697 100.18909"
   version="1.1"
   id="svg5"
   inkscape:version="1.1.1 (3bf5ae0d25, 2021-09-20)"
   sodipodi:docname="JW_Logo_white.svg"
   xmlns:inkscape="http://www.inkscape.org/namespaces/inkscape"
   xmlns:sodipodi="http://sodipodi.sourceforge.net/DTD/sodipodi-0.dtd"
   xmlns="http://www.w3.org/2000/svg"
   xmlns:svg="http://www.w3.org/2000/svg">
  <sodipodi:namedview
     id="namedview7"
     pagecolor="#ffffff"
     bordercolor="#666666"
     borderopacity="1.0"
     inkscape:pageshadow="2"
     inkscape:pageopacity="0.0"
     inkscape:pagecheckerboard="0"
     inkscape:document-units="px"
     showgrid="false"
     inkscape:zoom="2.56"
     inkscape:cx="157.03125"
     inkscape:cy="80.46875"
     inkscape:window-width="2558"
     inkscape:window-height="1368"
     inkscape:window-x="0"
     inkscape:window-y="0"
     inkscape:window-maximized="0"
     inkscape:current-layer="g24405" />
  <defs
     id="defs2">
    <style
       type="text/css"
       id="style24393">.str0 {stroke:#A75F4A;stroke-width:19.6259} .fil0 {fill:#A75F4A}</style>
  </defs>
  <g
     inkscape:label="Layer 1"
     inkscape:groupmode="layer"
     id="layer1"
     transform="translate(29.054259,-58.773826)">
    <text
       xml:space="preserve"
       style="font-style:normal;font-weight:normal;font-size:96.8194px;line-height:1.25;font-family:sans-serif;fill:#ffffff;fill-opacity:1;stroke:none;stroke-width:2.42048"
       x="88.533089"
       y="123.46954"
       id="text2079"
       transform="scale(0.98264464,1.0176619)"><tspan
         id="tspan2077"
         x="88.533089"
         y="123.46954"
         style="font-style:normal;font-variant:normal;font-weight:normal;font-stretch:normal;font-size:96.8194px;font-family:'Freestyle Script';-inkscape-font-specification:'Freestyle Script, Normal';font-variant-ligatures:normal;font-variant-caps:normal;font-variant-numeric:normal;font-variant-east-asian:normal;stroke-width:2.42048;fill:#ffffff"
         sodipodi:role="line">J</tspan></text>
    <text
       xml:space="preserve"
       style="font-style:normal;font-weight:normal;font-size:91.3076px;line-height:1.25;font-family:sans-serif;fill:#ffffff;fill-opacity:1;stroke:none;stroke-width:2.2827"
       x="119.39961"
       y="162.55405"
       id="text28219"
       transform="scale(1.0425041,0.95922885)"><tspan
         sodipodi:role="line"
         id="tspan28217"
         x="119.39961"
         y="162.55405"
         style="font-style:normal;font-variant:normal;font-weight:normal;font-stretch:normal;font-size:91.3076px;font-family:'Freestyle Script';-inkscape-font-specification:'Freestyle Script, Normal';font-variant-ligatures:normal;font-variant-caps:normal;font-variant-numeric:normal;font-variant-east-asian:normal;stroke-width:2.2827;fill:#ffffff">W</tspan></text>
    <text
       xml:space="preserve"
       style="font-style:normal;font-weight:normal;font-size:51.7204px;line-height:1.25;font-family:sans-serif;fill:#ffffff;fill-opacity:1;stroke:none;stroke-width:1.29302"
       x="129.55618"
       y="201.40829"
       id="text10535"
       transform="scale(1.2930107,0.77338881)"><tspan
         sodipodi:role="line"
         id="tspan10533"
         x="129.55618"
         y="201.40829"
         style="font-style:normal;font-variant:normal;font-weight:normal;font-stretch:normal;font-size:51.7204px;font-family:'Freestyle Script';-inkscape-font-specification:'Freestyle Script, Normal';font-variant-ligatures:normal;font-variant-caps:normal;font-variant-numeric:normal;font-variant-east-asian:normal;stroke-width:1.29302;fill:#ffffff">inko</tspan></text>
    <text
       xml:space="preserve"
       style="font-style:normal;font-weight:normal;font-size:54.8809px;line-height:1.25;font-family:sans-serif;fill:#ffffff;fill-opacity:1;stroke:none;stroke-width:1.37202"
       x="99.738045"
       y="122.89217"
       id="text13749"
       transform="scale(1.3720222,0.72885119)"><tspan
         sodipodi:role="line"
         id="tspan13747"
         x="99.738045"
         y="122.89217"
         style="font-style:normal;font-variant:normal;font-weight:normal;font-stretch:normal;font-size:54.8809px;font-family:'Freestyle Script';-inkscape-font-specification:'Freestyle Script, Normal';font-variant-ligatures:normal;font-variant-caps:normal;font-variant-numeric:normal;font-variant-east-asian:normal;stroke-width:1.37202;fill:#ffffff">ohn</tspan></text>
    <g
       style="clip-rule:evenodd;fill:#ffffff;fill-rule:evenodd;image-rendering:optimizeQuality;shape-rendering:geometricPrecision;text-rendering:geometricPrecision"
       id="g24405"
       transform="matrix(0.00491864,0,0,0.00415502,-29.050423,58.620401)">
      <path
         class="fil0 str0"
         d="m 2716,18847 c -2221,659 -3279,2450 -222,3455 4978,1637 9455,1513 13926,575 2999,-629 4133,-1665 3326,-2933 1527,1495 -321,2647 -2997,3357 -4384,1163 -10779,990 -14728,-507 -3281,-1244 -2189,-3179 694,-3947 z M 12437,1552 c -1182,645 -1142,1243 -898,1686 26,-576 105,-797 1215,-1474 1063,-647 664,-1329 355,-1721 159,608 260,1000 -673,1509 z m 656,5074 c -1695,925 -2526,1692 -2846,2513 -977,-120 -2293,-13 -3695,411 -1054,319 -2428,1173 -2164,1761 -1511,3638 -257,7881 3485,9291 -2020,-1611 -4343,-3261 -3215,-8652 1629,1180 3369,1205 5148,1233 1964,31 4107,-163 5592,-1060 2199,3578 -1161,7197 -4203,8771 2290,-957 4515,-1752 5419,-4788 505,-1697 315,-3404 -719,-5372 -16,645 -137,830 -1232,1460 1500,-1013 -951,-2132 -3877,-2244 86,-178 197,-353 342,-532 635,25 1283,67 1931,110 -483,-223 -1201,-311 -1829,-354 498,-561 1341,-1052 2786,-1931 3090,-1881 1930,-3861 1031,-5001 461,1766 755,2906 -1955,4384 z m -2894,2771 c -61,186 -96,368 -110,546 -1486,27 -3022,325 -4179,1034 1133,-456 2692,-716 4174,-744 23,467 184,900 400,1292 23,-502 60,-911 187,-1291 1211,28 2322,220 3041,597 1501,787 734,1470 -473,1762 -917,142 -2080,209 -3506,189 -4647,-66 -5281,-1558 -4532,-2156 1252,-998 3036,-1239 4997,-1228 z m 2540,-5839 c -2008,1095 -1941,2111 -1525,2864 45,-978 178,-1355 2065,-2503 1807,-1100 1129,-2257 603,-2924 270,1032 442,1699 -1143,2563 z m 2961,15701 c 1474,-1267 4299,-3451 1827,-5244 -1066,-773 -45,-2018 1261,-1297 1355,747 1929,2120 585,3819 -1052,1329 -2422,2047 -3673,2723 z"
         id="path24397"
         style="fill:#ffffff;stroke:#ffffff;stroke-opacity:1;stroke-width:19.68706289;stroke-miterlimit:4;stroke-dasharray:none" />
    </g>
  </g>
</svg>
